<svg id="Artwork" xmlns="http://www.w3.org/2000/svg" viewBox="0 0 48 48"><defs><style>.cls-1{fill:#000e1a;}</style></defs><path class="cls-1" d="M40,21a16.05,16.05,0,0,1-5,11.62V43H33V32.18a1,1,0,0,1,.33-.74A14,14,0,0,0,38,21,14,14,0,0,0,23.34,7,14.19,14.19,0,0,0,10,21.42V22a1,1,0,0,1-.09.41L6.41,30.32,9.26,31A1,1,0,0,1,10,32v5a2,2,0,0,0,2,2h6a1,1,0,0,1,1,1v3H17V41H12a4,4,0,0,1-4-4V32.78L4.77,32a1,1,0,0,1-.67-1.38L8,21.79v-.37A16.2,16.2,0,0,1,23.25,5,16,16,0,0,1,40,21Zm-9-3.55a7.56,7.56,0,0,1-1.72,4.34c-.16.23-.32.46-.47.71a4.46,4.46,0,0,0-.81,2V28l-4,2.67L20,28V24.47a4.46,4.46,0,0,0-.81-2c-.16-.25-.32-.48-.48-.71A7.55,7.55,0,0,1,17,17.45a7,7,0,0,1,14,0Zm-5,8H22v1.47l2,1.33,2-1.33Zm3-8a5,5,0,0,0-10,0,5.67,5.67,0,0,0,1.37,3.21c.16.25.33.5.5.75a7.63,7.63,0,0,1,.95,2H23v-4H21v-2h6v2H25v4h1.17a7.72,7.72,0,0,1,1-2c.16-.25.33-.5.5-.75A5.74,5.74,0,0,0,29,17.45Z"/></svg>