<svg id="ICONS2" xmlns="http://www.w3.org/2000/svg" viewBox="0 0 48 48"><defs><style>.cls-1{fill:#1d1d1b;}</style></defs><path class="cls-1" d="M24,4A13,13,0,0,0,11,17c0,3.29,1.58,5.63,3.26,8.1q.48.7,1,1.44A9.77,9.77,0,0,1,17,31v9.34l7,3.79,7-3.79V31a9.77,9.77,0,0,1,1.78-4.47q.48-.73,1-1.44C35.42,22.63,37,20.29,37,17A13,13,0,0,0,24,4ZM19,35H29v2H19Zm5,6.86-5-2.71V39H29v.15ZM29,33H19V31H29Zm3.08-9c-.32.48-.66,1-1,1.48A14.28,14.28,0,0,0,29.4,29H25V20h3V18H20v2h3v9H18.6a14.28,14.28,0,0,0-1.7-3.54c-.32-.51-.66-1-1-1.48C14.35,21.67,13,19.68,13,17a11,11,0,0,1,22,0C35,19.68,33.65,21.67,32.08,24Z"/></svg>